<svg xmlns="http://www.w3.org/2000/svg" xmlns:xlink="http://www.w3.org/1999/xlink" width="32" height="32"><g fill="none" fill-rule="evenodd" stroke-linecap="round" stroke-linejoin="round"><g stroke="#48485E" stroke-width="1.92" transform="translate(-1016 -512)"><g transform="translate(202 449)"><g transform="translate(733 64)"><g transform="translate(82)"><path d="M24.097 12.79a6.955 6.955 0 00-.207-3.069 7.19 7.19 0 00-1.808-3.048c-.86-.85-1.92-1.435-3.051-1.615a4.602 4.602 0 00-2.031.13"/><path d="M28.569 15.69a12.071 12.071 0 00-.006-7.519 12.508 12.508 0 00-2.817-4.745C24.472 2.087 22.91 1.06 21.18.493c-1.915-.627-4.028-.69-6.18.008M7.933 10c-1.59 1.549-1.11 5.035 1.161 8.001 2.273 2.966 5.514 4.336 7.423 3.203"/><path d="M21.86 27.736c-.07.117-.439.428-1.778 1.417-2.616 1.933-8.826-1.719-14.23-8.773C.445 13.325-1.392 6.395 1.081 4.356 2.414 3.258 2.784 3.011 2.905 3M22.173 27.633l-4.998-6.522a.86.86 0 01.16-1.2l2.263-1.736a.86.86 0 011.2.16l4.998 6.522a.856.856 0 01-.159 1.2l-2.264 1.735a.858.858 0 01-1.2-.159zM9.173 9.633L4.175 3.111a.86.86 0 01.16-1.2L6.598.174a.859.859 0 011.2.16l4.998 6.521a.86.86 0 01-.159 1.2l-2.265 1.736a.859.859 0 01-1.2-.159z"/></g></g></g></g></g></svg>