<?xml version="1.0" encoding="UTF-8"?>
<svg width="58px" height="62px" viewBox="0 0 58 62" version="1.1" xmlns="http://www.w3.org/2000/svg" xmlns:xlink="http://www.w3.org/1999/xlink">
    <!-- Generator: Sketch 52.6 (67491) - http://www.bohemiancoding.com/sketch -->
    <title>business &amp; socialising</title>
    <desc>Created with Sketch.</desc>
    <g id="Page-1" stroke="none" stroke-width="1" fill="none" fill-rule="evenodd">
        <g id="Monarch_Desktop_Aqua-pg" transform="translate(-135.000000, -1728.000000)">
            <g id="Facilities" transform="translate(-1.000000, 1388.000000)">
                <g id="business-&amp;-socialising" transform="translate(137.000000, 341.000000)">
                    <path d="M17.4995249,22 C18.3281596,22 19,22.6718404 19,23.5004751 C19,24.3291099 18.3281596,25 17.4995249,25 C16.6718404,25 16,24.3291099 16,23.5004751 C16,22.6718404 16.6718404,22 17.4995249,22" id="Fill-1" fill="#003B4A"></path>
                    <path d="M17.4995249,22 C18.3281596,22 19,22.6718404 19,23.5004751 C19,24.3291099 18.3281596,25 17.4995249,25 C16.6718404,25 16,24.3291099 16,23.5004751 C16,22.6718404 16.6718404,22 17.4995249,22 Z" id="Stroke-3" stroke="#FEFEFE" stroke-width="0.5"></path>
                    <path d="M21.4995249,22 C22.3281596,22 23,22.6718404 23,23.5004751 C23,24.3291099 22.3281596,25 21.4995249,25 C20.6708901,25 20,24.3291099 20,23.5004751 C20,22.6718404 20.6708901,22 21.4995249,22" id="Fill-5" fill="#003B4A"></path>
                    <path d="M21.4995249,22 C22.3281596,22 23,22.6718404 23,23.5004751 C23,24.3291099 22.3281596,25 21.4995249,25 C20.6708901,25 20,24.3291099 20,23.5004751 C20,22.6718404 20.6708901,22 21.4995249,22 Z" id="Stroke-7" stroke="#FEFEFE" stroke-width="0.5"></path>
                    <path d="M25.4995249,22 C26.3281596,22 27,22.6718404 27,23.5004751 C27,24.3291099 26.3281596,25 25.4995249,25 C24.6718404,25 24,24.3291099 24,23.5004751 C24,22.6718404 24.6718404,22 25.4995249,22" id="Fill-9" fill="#003B4A"></path>
                    <path d="M25.4995249,22 C26.3281596,22 27,22.6718404 27,23.5004751 C27,24.3291099 26.3281596,25 25.4995249,25 C24.6718404,25 24,24.3291099 24,23.5004751 C24,22.6718404 24.6718404,22 25.4995249,22 Z" id="Stroke-11" stroke="#FEFEFE" stroke-width="0.5"></path>
                    <path d="M28.9938641,21.6069898 L28.9938641,24.3521243 C28.9938641,26.3767487 27.2955288,28.0231274 25.207011,28.0231274 L24.2519238,28.0231274 C23.6336066,28.0231274 23.0134789,28.1626658 22.4585324,28.4277012 L18.4154806,30.3566672 C18.6852588,29.9406845 18.7631142,29.4272882 18.6191722,28.9525063 C18.4598401,28.4233132 18.0424986,27.9950441 17.5056581,27.8081152 C16.0092038,27.2885757 15.0043253,25.9002117 15.0043253,24.3521243 L15.0043253,21.6069898 C15.0043253,19.5867534 16.6999447,17.9447628 18.7830307,17.9447628 L25.2142534,17.9447628 C27.2982447,17.9447628 28.9938641,19.5867534 28.9938641,21.6069898 Z M18.783936,16 C15.5945783,16 13,18.5160807 13,21.6069898 L13,24.3521243 C13,26.6198441 14.4140723,28.6646533 16.547855,29.5326003 L15.7783534,30.4979609 C15.3202736,31.0727892 15.3320424,31.8670177 15.8064175,32.4286821 C16.1187447,32.7999071 16.5750138,33 17.0430519,33 C17.2811447,33 17.5246693,32.947344 17.7528039,32.8385215 L23.3448172,30.1714935 C23.6254589,30.0372206 23.9395966,29.9670125 24.252829,29.9670125 L25.2079163,29.9670125 C28.4018005,29.9670125 31,27.448299 31,24.3521243 L31,21.6069898 C31,18.5152031 28.4054217,16 25.2151587,16 L18.783936,16 Z" id="Fill-13" fill="#003B4A"></path>
                    <path d="M28.9938641,21.6069898 L28.9938641,24.3521243 C28.9938641,26.3767487 27.2955288,28.0231274 25.207011,28.0231274 L24.2519238,28.0231274 C23.6336066,28.0231274 23.0134789,28.1626658 22.4585324,28.4277012 L18.4154806,30.3566672 C18.6852588,29.9406845 18.7631142,29.4272882 18.6191722,28.9525063 C18.4598401,28.4233132 18.0424986,27.9950441 17.5056581,27.8081152 C16.0092038,27.2885757 15.0043253,25.9002117 15.0043253,24.3521243 L15.0043253,21.6069898 C15.0043253,19.5867534 16.6999447,17.9447628 18.7830307,17.9447628 L25.2142534,17.9447628 C27.2982447,17.9447628 28.9938641,19.5867534 28.9938641,21.6069898 Z M18.783936,16 C15.5945783,16 13,18.5160807 13,21.6069898 L13,24.3521243 C13,26.6198441 14.4140723,28.6646533 16.547855,29.5326003 L15.7783534,30.4979609 C15.3202736,31.0727892 15.3320424,31.8670177 15.8064175,32.4286821 C16.1187447,32.7999071 16.5750138,33 17.0430519,33 C17.2811447,33 17.5246693,32.947344 17.7528039,32.8385215 L23.3448172,30.1714935 C23.6254589,30.0372206 23.9395966,29.9670125 24.252829,29.9670125 L25.2079163,29.9670125 C28.4018005,29.9670125 31,27.448299 31,24.3521243 L31,21.6069898 C31,18.5152031 28.4054217,16 25.2151587,16 L18.783936,16 Z" id="Stroke-15" stroke="#FEFEFE" stroke-width="0.5"></path>
                    <path d="M14.9625493,38.9995401 C14.9625493,41.7358912 12.7365309,43.9626831 10,43.9626831 C7.26346912,43.9626831 5.03837057,41.7358912 5.03837057,38.9995401 C5.03837057,36.263189 7.26346912,34.0363971 10,34.0363971 C12.7365309,34.0363971 14.9625493,36.263189 14.9625493,38.9995401 M3,38.9995401 C3,42.8589449 6.1412615,46 10,46 C13.8596583,46 17,42.8589449 17,38.9995401 C17,35.1401353 13.8596583,32 10,32 C6.1412615,32 3,35.1401353 3,38.9995401" id="Fill-17" fill="#003B4A"></path>
                    <path d="M14.9625493,38.9995401 C14.9625493,41.7358912 12.7365309,43.9626831 10,43.9626831 C7.26346912,43.9626831 5.03837057,41.7358912 5.03837057,38.9995401 C5.03837057,36.263189 7.26346912,34.0363971 10,34.0363971 C12.7365309,34.0363971 14.9625493,36.263189 14.9625493,38.9995401 Z M3,38.9995401 C3,42.8589449 6.1412615,46 10,46 C13.8596583,46 17,42.8589449 17,38.9995401 C17,35.1401353 13.8596583,32 10,32 C6.1412615,32 3,35.1401353 3,38.9995401 Z" id="Stroke-19" stroke="#FEFEFE" stroke-width="0.5"></path>
                    <path d="M1.99483339,53.484994 C1.99483339,51.560024 3.56098023,49.9942977 5.48736787,49.9942977 L13.5135327,49.9942977 C15.4390198,49.9942977 17.004266,51.560024 17.004266,53.484994 L17.004266,58.0057023 L1.99483339,58.0057023 L1.99483339,53.484994 Z M0,53.484994 L0,59.0033013 C0,59.5534214 0.445797981,60 0.997866995,60 L18.002133,60 C18.554202,60 19,59.5534214 19,59.0033013 L19,53.484994 C19,50.4606843 16.5386548,48 13.5144333,48 L5.48736787,48 C2.46134521,48 0,50.4606843 0,53.484994 Z" id="Fill-21" fill="#003B4A"></path>
                    <path d="M1.99483339,53.484994 C1.99483339,51.560024 3.56098023,49.9942977 5.48736787,49.9942977 L13.5135327,49.9942977 C15.4390198,49.9942977 17.004266,51.560024 17.004266,53.484994 L17.004266,58.0057023 L1.99483339,58.0057023 L1.99483339,53.484994 Z M0,53.484994 L0,59.0033013 C0,59.5534214 0.445797981,60 0.997866995,60 L18.002133,60 C18.554202,60 19,59.5534214 19,59.0033013 L19,53.484994 C19,50.4606843 16.5386548,48 13.5144333,48 L5.48736787,48 C2.46134521,48 0,50.4606843 0,53.484994 Z" id="Stroke-23" stroke="#FEFEFE" stroke-width="0.5"></path>
                    <path d="M41.993965,8.35344828 C41.993965,9.90057815 40.989137,11.2888705 39.4936632,11.8083832 L39.492758,11.8083832 C38.9550392,11.9953025 38.538624,12.424427 38.3792999,12.9544704 C38.2362704,13.4283502 38.3132167,13.94172 38.5829813,14.3568036 L34.5401328,12.4270597 C33.9834037,12.1637931 33.3642124,12.0233843 32.7468316,12.0233843 L31.7908871,12.0233843 C29.7033796,12.0233843 28.0051298,10.3770906 28.0051298,8.35344828 L28.0051298,5.6084555 C28.0051298,3.58832335 29.6997586,1.9446624 31.7836451,1.9446624 L38.2145444,1.9446624 C40.2984309,1.9446624 41.993965,3.58832335 41.993965,5.6084555 L41.993965,8.35344828 Z M38.2145444,0 L31.7845504,0 C28.595353,0 26,2.51595086 26,5.60757795 L26,8.35344828 C26,11.4485856 28.5980688,13.9662916 31.7908871,13.9662916 L32.7477369,13.9662916 C33.0600483,13.9662916 33.3750754,14.0373735 33.6547978,14.1707619 L39.2474351,16.8394074 C39.474653,16.9473467 39.7163549,17 39.9562462,17 C40.4242607,17 40.8805069,16.7999174 41.1937236,16.427834 C41.6671696,15.8661986 41.6789378,15.0720112 41.2208811,14.4972125 L40.4514182,13.5319017 C42.5859988,12.6657547 44,10.6201734 44,8.35344828 L44,5.60757795 C43.9990947,2.51595086 41.4055522,0 38.2145444,0 Z" id="Fill-25" fill="#003B4A"></path>
                    <path d="M41.993965,8.35344828 C41.993965,9.90057815 40.989137,11.2888705 39.4936632,11.8083832 L39.492758,11.8083832 C38.9550392,11.9953025 38.538624,12.424427 38.3792999,12.9544704 C38.2362704,13.4283502 38.3132167,13.94172 38.5829813,14.3568036 L34.5401328,12.4270597 C33.9834037,12.1637931 33.3642124,12.0233843 32.7468316,12.0233843 L31.7908871,12.0233843 C29.7033796,12.0233843 28.0051298,10.3770906 28.0051298,8.35344828 L28.0051298,5.6084555 C28.0051298,3.58832335 29.6997586,1.9446624 31.7836451,1.9446624 L38.2145444,1.9446624 C40.2984309,1.9446624 41.993965,3.58832335 41.993965,5.6084555 L41.993965,8.35344828 Z M38.2145444,0 L31.7845504,0 C28.595353,0 26,2.51595086 26,5.60757795 L26,8.35344828 C26,11.4485856 28.5980688,13.9662916 31.7908871,13.9662916 L32.7477369,13.9662916 C33.0600483,13.9662916 33.3750754,14.0373735 33.6547978,14.1707619 L39.2474351,16.8394074 C39.474653,16.9473467 39.7163549,17 39.9562462,17 C40.4242607,17 40.8805069,16.7999174 41.1937236,16.427834 C41.6671696,15.8661986 41.6789378,15.0720112 41.2208811,14.4972125 L40.4514182,13.5319017 C42.5859988,12.6657547 44,10.6201734 44,8.35344828 L44,5.60757795 C43.9990947,2.51595086 41.4055522,0 38.2145444,0 Z" id="Stroke-27" stroke="#FEFEFE" stroke-width="0.5"></path>
                    <path d="M47,18.0374507 C49.7368905,18.0374507 51.9632015,20.2634691 51.9632015,23 C51.9632015,25.7365309 49.7368905,27.9625493 47,27.9625493 C44.2631095,27.9625493 42.0367985,25.7365309 42.0367985,23 C42.0367985,20.2634691 44.2631095,18.0374507 47,18.0374507 M40,23 C40,26.8596583 43.1407544,30 47,30 C50.8592456,30 54,26.8587385 54,23 C54,19.1403417 50.8592456,16 47,16 C43.1407544,16 40,19.1394218 40,23" id="Fill-29" fill="#003B4A"></path>
                    <path d="M47,18.0374507 C49.7368905,18.0374507 51.9632015,20.2634691 51.9632015,23 C51.9632015,25.7365309 49.7368905,27.9625493 47,27.9625493 C44.2631095,27.9625493 42.0367985,25.7365309 42.0367985,23 C42.0367985,20.2634691 44.2631095,18.0374507 47,18.0374507 Z M40,23 C40,26.8596583 43.1407544,30 47,30 C50.8592456,30 54,26.8587385 54,23 C54,19.1403417 50.8592456,16 47,16 C43.1407544,16 40,19.1394218 40,23 Z" id="Stroke-31" stroke="#FEFEFE" stroke-width="0.5"></path>
                    <path d="M54.004266,42.0055526 L38.9948334,42.0055526 L38.9948334,37.4845051 C38.9948334,35.5602911 40.5609802,33.9944474 42.4864673,33.9944474 L50.5126321,33.9944474 C52.4390198,33.9944474 54.004266,35.5602911 54.004266,37.4845051 L54.004266,42.0055526 Z M56,37.4845051 C56,34.4599685 53.5377542,32 50.5126321,32 L42.4864673,32 C39.4613452,32 37,34.4599685 37,37.4845051 L37,43.0032265 C37,43.5533879 37.445798,44 37.997867,44 L55.0012324,44 C55.5533014,44 56,43.5533879 56,43.0032265 L56,37.4845051 Z" id="Fill-33" fill="#003B4A"></path>
                    <path d="M54.004266,42.0055526 L38.9948334,42.0055526 L38.9948334,37.4845051 C38.9948334,35.5602911 40.5609802,33.9944474 42.4864673,33.9944474 L50.5126321,33.9944474 C52.4390198,33.9944474 54.004266,35.5602911 54.004266,37.4845051 L54.004266,42.0055526 Z M56,37.4845051 C56,34.4599685 53.5377542,32 50.5126321,32 L42.4864673,32 C39.4613452,32 37,34.4599685 37,37.4845051 L37,43.0032265 C37,43.5533879 37.445798,44 37.997867,44 L55.0012324,44 C55.5533014,44 56,43.5533879 56,43.0032265 L56,37.4845051 Z" id="Stroke-35" stroke="#FEFEFE" stroke-width="0.5"></path>
                </g>
            </g>
        </g>
    </g>
</svg>