<?xml version="1.0" encoding="UTF-8"?>
<svg width="33px" height="59px" viewBox="0 0 33 59" version="1.1" xmlns="http://www.w3.org/2000/svg" xmlns:xlink="http://www.w3.org/1999/xlink">
    <!-- Generator: Sketch 52.6 (67491) - http://www.bohemiancoding.com/sketch -->
    <title>elder care</title>
    <desc>Created with Sketch.</desc>
    <defs>
        <polygon id="path-1" points="0 0.725529321 32.543775 0.725529321 32.543775 45.9997491 0 45.9997491"></polygon>
    </defs>
    <g id="Page-1" stroke="none" stroke-width="1" fill="none" fill-rule="evenodd">
        <g id="Monarch_Desktop_Aqua-pg" transform="translate(-1058.000000, -1729.000000)">
            <g id="Facilities" transform="translate(-1.000000, 1388.000000)">
                <g id="elder-care" transform="translate(1059.000000, 341.000000)">
                    <g id="Group-3" transform="translate(0.000000, 13.000000)">
                        <mask id="mask-2" fill="white">
                            <use xlink:href="#path-1"></use>
                        </mask>
                        <g id="Clip-2"></g>
                        <path d="M19.8023925,17.1945491 C19.0004925,17.3626582 18.3000675,17.0122218 17.9073675,16.3698945 L16.7408175,14.4671673 C16.5560175,14.1660764 16.2062175,13.9946218 15.8588925,14.0665491 C15.5115675,14.1276036 15.2368425,14.3969127 15.1617675,14.7473491 C14.5982925,17.42204 13.8830175,19.9445127 13.3847175,21.5888036 C13.2997425,21.8689855 13.3583175,22.1709127 13.5398175,22.4000764 L17.0452425,26.7717491 C17.6120175,27.4793127 18.0434925,28.3081491 18.1672425,28.7522582 L21.9292425,40.9656764 C22.2716175,42.1901127 21.5703675,43.46724 20.3666925,43.8126582 C19.1308425,44.1647673 17.8941675,43.4287673 17.5344675,42.1533127 C17.4791925,42.0069491 16.1311425,38.43484 12.1661925,30.4818582 C10.9163175,27.9769491 8.0510925,25.8977491 5.7460425,24.2283673 C4.6075425,23.4037127 3.3172425,22.4703309 3.1043925,22.0354218 C1.7216925,19.2210582 3.3444675,13.1590945 5.6627175,8.62600364 C7.6913925,4.66080364 9.6994425,2.71793091 10.7892675,2.54647636 C11.0780175,2.50298545 11.3527425,2.48207636 11.6134425,2.48207636 C14.3895675,2.48207636 15.4991925,4.90418545 15.5387925,4.99702182 C15.6790425,5.32654909 18.3759675,10.0361127 19.9698675,12.8178582 C20.1571425,13.1432036 20.5267425,13.3205127 20.8905675,13.2343673 L28.6439175,11.6084764 C29.6075175,11.4002218 30.5735925,12.0609491 30.7707675,13.0261127 C30.8689425,13.5036764 30.7757175,13.9946218 30.5108925,14.4010945 C30.2468925,14.8075673 29.8426425,15.0885855 29.3707425,15.1872764 L19.8023925,17.1945491 Z M6.2022675,42.5121127 C5.9687925,43.4321127 5.1875175,44.1237855 4.2527925,44.2291673 C3.9797175,44.2609491 3.7066425,44.2433855 3.4360425,44.1714582 C2.8486425,44.0175673 2.3544675,43.6403673 2.0459175,43.1117855 C1.7365425,42.5823673 1.6490925,41.9626218 1.8017175,41.3637855 L5.5612425,26.2498582 C7.1089425,27.3848036 8.7638925,28.6937127 9.8594925,30.0979673 L6.2022675,42.5121127 Z M31.9620675,15.3604036 C32.4809925,14.5633491 32.6608425,13.6057127 32.4694425,12.6681491 C32.0816925,10.7771309 30.1536675,9.49164 28.2982425,9.89393091 L21.1562175,11.3901855 C19.5639675,8.61513091 17.2869675,4.62734909 17.1285675,4.30116727 C17.0592675,4.14058545 15.2690175,0.0733490909 10.5302175,0.81604 C7.7705925,1.24676727 5.1363675,5.85847636 4.1323425,7.82225818 C1.6078425,12.7509491 -0.1659075,19.3030218 1.5599925,22.8165855 C1.8998925,23.5141127 2.8106925,24.2375673 4.0523175,25.15004 L0.1269675,40.9313855 C-0.1386825,41.9818582 0.0155925,43.0733127 0.5592675,44.0066945 C1.1037675,44.9400764 1.9724925,45.6008036 3.0078675,45.8701127 C3.3353925,45.9562582 3.6670425,45.9997491 3.9978675,45.9997491 C4.1488425,45.9997491 4.3014675,45.9897127 4.4540925,45.9721491 C6.0900675,45.7848036 7.4669925,44.5687309 7.8695925,42.9821491 L11.0598675,32.1470582 C14.6073675,39.3280764 15.8984925,42.70364 15.9009675,42.70364 C16.3868925,44.4416036 17.9675925,45.6534945 19.7462925,45.6534945 C20.1101175,45.6534945 20.4780675,45.6024764 20.8410675,45.4987673 C22.9629675,44.8857127 24.1979925,42.6384036 23.5899675,40.4672036 L19.8246675,28.2537855 C19.6225425,27.5253127 19.0458675,26.4882218 18.3875175,25.6660764 L15.1724925,21.6573855 C15.5297175,20.4588764 15.9677925,18.9040764 16.3802925,17.1962218 L16.4405175,17.2924036 C17.2127175,18.5519673 18.6490425,19.2277491 20.1538425,18.9074218 L28.7643675,17.1017127 L30.8169675,44.8422218 C30.8516175,45.3047309 31.2302925,45.6534945 31.6774425,45.6534945 L31.7434425,45.6534945 C32.2186425,45.6158582 32.5733925,45.1943309 32.5387425,44.7125855 L30.4630425,16.6517491 C31.0669425,16.3765855 31.5891675,15.9391673 31.9620675,15.3604036 Z" id="Fill-1" fill="#003B4A" mask="url(#mask-2)"></path>
                    </g>
                    <path d="M8.78192126,4.95641481 C9.35361731,4.95641481 9.81879648,5.4163137 9.81879648,5.9795054 C9.81879648,6.54269709 9.35361731,6.99931685 8.78192126,6.99931685 C8.2102252,6.99931685 7.74504603,6.54269709 7.74504603,5.9795054 C7.74504603,5.4163137 8.2102252,4.95641481 8.78192126,4.95641481 M15.9110626,1.71662795 C18.3085245,1.71662795 20.2591148,3.64148108 20.2591148,6.00163957 C20.2591148,8.36261784 18.3085245,10.283372 15.9110626,10.283372 C13.5136007,10.283372 11.561346,8.36261784 11.561346,6.00163957 C11.561346,3.64148108 13.5119363,1.71662795 15.9110626,1.71662795 M8.78192126,8.71430523 C9.33364539,8.71430523 9.84625787,8.54952862 10.2789827,8.27818008 C11.1902013,10.4588058 13.3688043,12 15.9085661,12 C19.2680085,12 22,9.31192786 22,6.00163957 C22,2.69217106 19.2680085,0 15.9085661,0 C13.3837832,0 11.2126697,1.5231589 10.290633,3.68410985 C9.85541166,3.40620303 9.33780621,3.2373275 8.77942477,3.2373275 C7.24741249,3.2373275 6,4.46864326 6,5.97786583 C6,7.4870884 7.24741249,8.71430523 8.78192126,8.71430523" id="Fill-4" fill="#003B4A"></path>
                </g>
            </g>
        </g>
    </g>
</svg>