<?xml version="1.0" encoding="UTF-8"?>
<svg width="61px" height="54px" viewBox="0 0 61 54" version="1.1" xmlns="http://www.w3.org/2000/svg" xmlns:xlink="http://www.w3.org/1999/xlink">
    <!-- Generator: Sketch 52.6 (67491) - http://www.bohemiancoding.com/sketch -->
    <title>Entertainment &amp; sports</title>
    <desc>Created with Sketch.</desc>
    <defs>
        <polygon id="path-1" points="0 0.16 60.914 0.16 60.914 54 0 54"></polygon>
    </defs>
    <g id="Page-1" stroke="none" stroke-width="1" fill="none" fill-rule="evenodd">
        <g id="Monarch_Desktop_Aqua-pg" transform="translate(-596.000000, -1465.000000)">
            <g id="Facilities" transform="translate(-1.000000, 1388.000000)">
                <g id="Entertainment-&amp;-sports" transform="translate(597.000000, 76.000000)">
                    <path d="M30.454,6.6005 C33.352,6.6005 35.71,8.9585 35.71,11.8565 C35.71,14.7545 33.352,17.1125 30.454,17.1125 C27.557,17.1125 25.198,14.7545 25.198,11.8565 C25.198,8.9585 27.557,6.6005 30.454,6.6005 M30.454,18.7395 C34.251,18.7395 37.336,15.6535 37.336,11.8585 C37.336,8.0635 34.251,4.9765 30.454,4.9765 C26.661,4.9765 23.573,8.0635 23.573,11.8585 C23.573,15.6535 26.661,18.7395 30.454,18.7395" id="Fill-1" fill="#003B4A"></path>
                    <path d="M45.082,17.1147 C42.184,17.1147 39.825,14.7567 39.825,11.8587 C39.825,8.9607 42.184,6.6027 45.082,6.6027 C47.979,6.6027 50.338,8.9607 50.338,11.8587 C50.338,14.7567 47.979,17.1147 45.082,17.1147 M45.082,4.9757 C41.288,4.9757 38.2,8.0617 38.2,11.8567 C38.2,15.6517 41.288,18.7387 45.082,18.7387 C48.878,18.7387 51.963,15.6517 51.963,11.8567 C51.963,8.0617 48.878,4.9757 45.082,4.9757" id="Fill-3" fill="#003B4A"></path>
                    <path d="M15.828,17.1147 C12.929,17.1147 10.571,14.7567 10.571,11.8587 C10.571,8.9607 12.929,6.6027 15.828,6.6027 C18.726,6.6027 21.085,8.9607 21.085,11.8587 C21.085,14.7567 18.726,17.1147 15.828,17.1147 M22.708,11.8567 C22.708,8.0617 19.622,4.9757 15.827,4.9757 C12.032,4.9757 8.944,8.0617 8.944,11.8567 C8.944,15.6517 12.032,18.7387 15.827,18.7387 C19.622,18.7387 22.708,15.6517 22.708,11.8567" id="Fill-5" fill="#003B4A"></path>
                    <path d="M23.1425,29.7836 C20.2435,29.7836 17.8845,27.4256 17.8845,24.5256 C17.8845,21.6296 20.2435,19.2716 23.1425,19.2716 C26.0395,19.2716 28.3985,21.6296 28.3985,24.5256 C28.3965,27.4236 26.0385,29.7836 23.1425,29.7836 M30.0225,24.5236 C30.0225,20.7286 26.9375,17.6446 23.1405,17.6446 C19.3455,17.6446 16.2575,20.7286 16.2575,24.5236 C16.2575,28.3206 19.3455,31.4076 23.1405,31.4076 C26.9375,31.4086 30.0225,28.3206 30.0225,24.5236" id="Fill-7" fill="#003B4A"></path>
                    <path d="M37.7675,29.7836 C34.8705,29.7836 32.5115,27.4256 32.5115,24.5256 C32.5115,21.6296 34.8705,19.2716 37.7675,19.2716 C40.6655,19.2716 43.0245,21.6296 43.0245,24.5256 C43.0245,27.4236 40.6655,29.7836 37.7675,29.7836 M37.7675,17.6426 C33.9745,17.6426 30.8865,20.7276 30.8865,24.5226 C30.8865,28.3196 33.9745,31.4036 37.7675,31.4036 C41.5645,31.4036 44.6495,28.3196 44.6495,24.5226 C44.6495,20.7276 41.5645,17.6426 37.7675,17.6426" id="Fill-9" fill="#003B4A"></path>
                    <path d="M30.454,42.4506 C27.557,42.4506 25.198,40.0926 25.198,37.1946 C25.198,34.2956 27.557,31.9366 30.454,31.9366 C33.352,31.9366 35.71,34.2956 35.71,37.1946 C35.71,40.0896 33.352,42.4506 30.454,42.4506 M30.454,30.3096 C26.661,30.3096 23.573,33.3976 23.573,37.1936 C23.573,40.9886 26.661,44.0726 30.454,44.0726 C34.251,44.0726 37.336,40.9886 37.336,37.1936 C37.336,33.3976 34.251,30.3096 30.454,30.3096" id="Fill-11" fill="#003B4A"></path>
                    <g id="Group-15" transform="translate(0.000000, 0.840200)">
                        <mask id="mask-2" fill="white">
                            <use xlink:href="#path-1"></use>
                        </mask>
                        <g id="Clip-14"></g>
                        <path d="M58.9599,5.4434 L32.5649,51.1574 C32.3529,51.5294 32.0459,51.8374 31.6729,52.0494 C30.5449,52.7014 28.9899,52.2804 28.3429,51.1574 L1.9499,5.4434 C1.7359,5.0724 1.6239,4.6514 1.6239,4.2244 C1.6239,2.8804 2.7169,1.7864 4.0619,1.7864 L56.8489,1.7864 C57.2739,1.7864 57.6949,1.8994 58.0669,2.1134 C58.6299,2.4384 59.0329,2.9634 59.2019,3.5934 C59.3689,4.2224 59.2829,4.8794 58.9599,5.4434 M58.8799,0.7044 C58.2629,0.3484 57.5589,0.1594 56.8489,0.1594 L4.0639,0.1594 C1.8239,0.1594 -0.0001,1.9834 -0.0001,4.2224 C-0.0001,4.9344 0.1889,5.6384 0.5439,6.2544 L26.9379,51.9684 C27.6589,53.2214 29.0079,54.0004 30.4579,54.0004 C31.1699,54.0004 31.8699,53.8134 32.4889,53.4574 C33.1059,53.0994 33.6169,52.5874 33.9749,51.9684 L60.3669,6.2544 C60.9119,5.3154 61.0549,4.2194 60.7729,3.1724 C60.4919,2.1244 59.8179,1.2474 58.8799,0.7044" id="Fill-13" fill="#003B4A" mask="url(#mask-2)"></path>
                    </g>
                    <path d="M15.1572,7.5434 C13.7842,7.7564 12.5832,8.6214 11.9442,9.8574 C11.7392,10.2554 11.8952,10.7464 12.2932,10.9514 C12.4122,11.0134 12.5392,11.0424 12.6662,11.0424 C12.9602,11.0424 13.2442,10.8814 13.3892,10.6024 C13.7892,9.8254 14.5432,9.2804 15.4062,9.1474 C15.8492,9.0794 16.1522,8.6634 16.0842,8.2214 C16.0162,7.7754 15.6092,7.4804 15.1572,7.5434" id="Fill-16" fill="#003B4A"></path>
                    <path d="M27.2968,11.0395 C27.5908,11.0395 27.8728,10.8785 28.0198,10.5985 C28.4198,9.8215 29.1718,9.2775 30.0348,9.1435 C30.4788,9.0765 30.7808,8.6605 30.7148,8.2175 C30.6448,7.7735 30.2268,7.4755 29.7848,7.5395 C28.4128,7.7525 27.2098,8.6175 26.5708,9.8545 C26.3668,10.2525 26.5248,10.7435 26.9208,10.9485 C27.0408,11.0135 27.1698,11.0395 27.2968,11.0395" id="Fill-18" fill="#003B4A"></path>
                    <path d="M44.412,7.5434 C43.04,7.7564 41.838,8.6214 41.199,9.8574 C40.994,10.2554 41.151,10.7464 41.549,10.9514 C41.667,11.0134 41.794,11.0424 41.921,11.0424 C42.215,11.0424 42.499,10.8814 42.642,10.6024 C43.042,9.8254 43.798,9.2804 44.661,9.1474 C45.102,9.0794 45.407,8.6634 45.337,8.2214 C45.271,7.7754 44.855,7.4804 44.412,7.5434" id="Fill-20" fill="#003B4A"></path>
                    <path d="M37.0986,20.2109 C35.7236,20.4239 34.5246,21.2879 33.8856,22.5239 C33.6806,22.9219 33.8376,23.4129 34.2346,23.6169 C34.3536,23.6789 34.4806,23.7089 34.6066,23.7089 C34.9016,23.7089 35.1856,23.5469 35.3276,23.2679 C35.7286,22.4909 36.4846,21.9479 37.3466,21.8149 C37.7886,21.7469 38.0926,21.3309 38.0236,20.8889 C37.9576,20.4449 37.5416,20.1479 37.0986,20.2109" id="Fill-22" fill="#003B4A"></path>
                    <path d="M22.4706,20.2109 C21.0956,20.4239 19.8966,21.2879 19.2576,22.5239 C19.0526,22.9219 19.2086,23.4129 19.6076,23.6169 C19.7256,23.6789 19.8526,23.7089 19.9796,23.7089 C20.2736,23.7089 20.5576,23.5469 20.7026,23.2679 C21.1026,22.4909 21.8566,21.9479 22.7196,21.8149 C23.1626,21.7469 23.4656,21.3309 23.3976,20.8889 C23.3316,20.4449 22.9226,20.1479 22.4706,20.2109" id="Fill-24" fill="#003B4A"></path>
                    <path d="M29.7851,32.8779 C28.4131,33.0909 27.2101,33.9559 26.5711,35.1919 C26.3671,35.5909 26.5241,36.0819 26.9211,36.2879 C27.0401,36.3479 27.1661,36.3779 27.2931,36.3779 C27.5871,36.3779 27.8721,36.2179 28.0141,35.9369 C28.4151,35.1619 29.1701,34.6169 30.0331,34.4839 C30.4751,34.4159 30.7791,33.9979 30.7101,33.5559 C30.6441,33.1119 30.2261,32.8159 29.7851,32.8779" id="Fill-26" fill="#003B4A"></path>
                </g>
            </g>
        </g>
    </g>
</svg>