<?xml version="1.0" encoding="UTF-8"?>
<svg width="53px" height="61px" viewBox="0 0 53 61" version="1.1" xmlns="http://www.w3.org/2000/svg" xmlns:xlink="http://www.w3.org/1999/xlink">
    <!-- Generator: Sketch 52.6 (67491) - http://www.bohemiancoding.com/sketch -->
    <title>health &amp; relaxation</title>
    <desc>Created with Sketch.</desc>
    <g id="Page-1" stroke="none" stroke-width="1" fill="none" fill-rule="evenodd">
        <g id="Monarch_Desktop_Aqua-pg" transform="translate(-1060.000000, -1461.000000)">
            <g id="Facilities" transform="translate(-1.000000, 1388.000000)">
                <g id="health-&amp;-relaxation" transform="translate(1062.000000, 74.000000)">
                    <path d="M2.53708267,45.6808431 L5.45724509,44.889903 C5.53230934,44.8696433 5.60247809,44.8307446 5.65877628,44.7772589 L12.5834532,38.3298004 C13.1635692,37.7876498 13.4931992,37.0323669 13.494831,36.2422372 L13.494831,25.7833509 C13.4801445,24.9105614 13.9541916,24.1009824 14.725232,23.682011 C15.0091706,23.5264162 15.3290096,23.4445669 15.6529282,23.4429461 C15.6871966,23.4429461 15.7214651,23.4429461 15.7557335,23.4461877 L17.8118412,32.0808873 L17.4234653,36.3046371 C17.3728785,36.8621851 17.22275,37.4067668 16.981239,37.9132602 L15.9858218,39.9992027 C15.5338045,40.9433064 14.783162,41.7147971 13.8489385,42.1961685 L7.99229529,45.1986614 C7.95965866,45.2156796 7.92783795,45.2359393 7.8992809,45.2594406 L7.27347353,45.7934873 C6.64440249,46.3283443 5.88723269,46.6938299 5.07621244,46.8559078 L0.958285712,47.6727804 C0.98929051,46.737591 1.62896845,45.9304431 2.53708267,45.6808431 Z M25.5002152,27.0200052 C27.3556076,27.0183844 28.8593403,25.5248366 28.861788,23.682011 L28.861788,22.1293048 L34.284364,23.3270604 L32.2355996,31.9358276 C32.2241768,31.9860717 32.2200972,32.0379367 32.2249927,32.0889912 L32.4852698,34.9269751 L31.8121394,39.1831405 L19.1874751,39.1831405 L18.5151606,34.9277855 L18.7754377,32.0898016 C18.7803332,32.0387471 18.7762536,31.9868821 18.7648308,31.936638 L16.7160664,23.3278708 L22.1378264,22.1293048 L22.1378264,23.682011 C22.1402742,25.5248366 23.6440069,27.0183844 25.5002152,27.0200052 Z M25.5002152,20.4145207 C26.3569267,20.3991233 27.1916085,20.1365572 27.9006393,19.657617 L27.9006393,23.682011 C27.9006393,24.9988939 26.8260783,26.0661768 25.5002152,26.0661768 C24.1743521,26.0661768 23.0989752,24.9988939 23.0989752,23.682011 L23.0989752,19.657617 C23.808006,20.1365572 24.6426878,20.3991233 25.5002152,20.4145207 Z M19.9495404,12.4524443 C20.5622932,9.49209167 22.8827575,7.35185313 25.5002152,7.35185313 C28.1976326,7.35185313 30.4805649,9.37377481 31.0786311,12.2774002 C30.5401267,15.7474879 28.1494936,19.4606923 25.5002152,19.4606923 C22.8949963,19.4606923 20.5394475,15.8698567 19.9495404,12.4508236 L19.9495404,12.4524443 Z M25.5002152,4.15324595 C28.2979903,4.15324595 30.6298775,6.54875718 31.1031086,9.69387865 C29.9037124,7.67438813 27.8378138,6.39802474 25.5002152,6.39802474 C23.1471142,6.39802474 21.057554,7.76434136 19.8655011,9.91592536 C20.2612202,6.6622117 22.636351,4.15324595 25.5002152,4.15324595 Z M25.5002152,0.953828387 C27.3042049,0.956259556 28.7679577,2.4052359 28.7761169,4.19781737 C26.7975212,2.86553711 24.2020933,2.86553711 22.2234976,4.19781737 C22.2316568,2.4052359 23.6954096,0.956259556 25.5002152,0.953828387 Z M36.2743825,23.682011 C37.0454229,24.1009824 37.5194699,24.9105614 37.5047835,25.7833509 L37.5047835,36.2414268 C37.5064153,37.0323669 37.8368612,37.7884602 38.4177932,38.3298004 L45.2208986,44.6581316 C45.2771968,44.7099966 45.3441019,44.7480849 45.4167184,44.7683446 L48.4657955,45.6435652 C49.3771734,45.9109937 50.0135876,46.7294871 50.0421447,47.6735908 L46.4023446,46.9507234 C45.3204403,46.7343494 44.3446051,46.1581625 43.6372062,45.3169783 C43.5931467,45.2643029 43.5392963,45.2229731 43.4781026,45.1921783 L37.2273721,42.1832022 C36.2441936,41.7075036 35.4519395,40.9141324 34.9827879,39.9327507 L34.0191914,37.9132602 C33.7776804,37.4067668 33.6275519,36.8621851 33.5769651,36.3046371 L33.1885892,32.0808873 L35.243881,23.4453773 C35.602068,23.4275487 35.9594391,23.5093981 36.2743825,23.682011 Z M43.8770854,46.9507234 L32.4632401,43.7618409 L32.4632401,40.0729481 C32.5888911,40.0008234 32.6753782,39.8760235 32.6974079,39.7342053 L32.9829784,37.9262264 C33.035197,38.0591303 33.0890475,38.1912238 33.1510571,38.3208861 L34.1146536,40.341187 C34.6784513,41.5186829 35.6289932,42.4708905 36.8088073,43.0414047 L42.9689712,46.0074301 C43.3075762,46.3947962 43.6975839,46.7351598 44.1283874,47.0196065 C44.0435322,46.9969156 43.9619406,46.9717935 43.8770854,46.9507234 Z M48.79053,51.5845303 C48.79053,53.3981819 47.0844501,56.8309916 40.627293,56.8309916 C40.1809871,56.8309916 39.7126514,56.8285605 39.2271816,56.8245085 C39.6718557,56.0522074 39.9256055,55.185901 39.9664012,54.2969038 C39.9664012,53.2855378 39.3528326,52.451647 38.8281988,51.9232731 C39.1716993,51.7903692 39.4425833,51.5205095 39.5755776,51.1793356 C40.0235153,51.0010499 40.8581971,50.7247071 41.4481042,50.7498292 L41.4880841,49.7960008 C40.8239287,49.8073462 40.1671165,49.9345774 39.5478365,50.1720215 C39.3446735,49.7222553 38.904079,49.4248424 38.4088181,49.4037723 L33.704248,49.2003645 L30.3483865,48.7838243 C29.907792,48.7279075 29.4647498,48.8786399 29.1514381,49.1914502 L27.9194054,50.4151383 C27.8084408,50.5261617 27.6477054,50.5755954 27.4926814,50.5464214 L15.0238571,48.2530193 C14.9773499,48.2449154 14.9292109,48.2432946 14.8827037,48.2481569 L8.40025316,48.9637308 L8.50550629,49.9118865 L9.76283244,49.7724995 C9.73917089,49.8259852 9.71550933,49.8794709 9.69184777,49.9378189 C9.36466556,50.6841876 9.18842776,51.4864732 9.17292536,52.2992938 C9.17292536,53.3681975 9.68450453,54.3641661 10.1259149,55.0254439 C8.69643057,54.9930283 7.58270559,54.8406751 7.01319641,54.5108466 C6.1573008,54.0148883 5.40013099,53.650213 4.73026417,53.3284884 C3.10740777,52.547273 2.44977968,52.1963743 2.44977968,51.3454654 C2.44977968,50.4078448 4.50262368,48.9604892 5.98514258,48.2157413 L18.8415269,44.6678563 L32.1572717,44.6678563 L43.6298629,47.8729466 C44.9891785,48.1987232 46.262823,48.8065153 47.3675729,49.6566138 C48.286294,50.3713773 48.79053,51.0561564 48.79053,51.5845303 Z M21.4369548,56.3536722 C21.396159,56.3520515 21.3561792,56.3561034 21.3170152,56.3642073 L13.5592884,58.030368 C13.1929422,58.1089758 12.8314915,57.8780148 12.7531636,57.5141499 C12.6789153,57.1745968 12.8771828,56.8342332 13.2108924,56.7296929 L16.6932207,55.637288 C19.4624387,55.3674283 22.4878543,54.9719582 25.4145441,54.5716258 C26.5462192,54.4168414 27.5228703,54.2823168 28.1968167,54.203709 C31.0827107,53.866587 35.3230248,52.840634 37.7307921,52.2223068 C38.1069293,52.5221509 39.0052525,53.3398339 39.0052525,54.2969038 C39.0052525,55.3196153 38.3957634,56.384467 38.1207998,56.8139734 C31.1536954,56.7296929 21.5454716,56.3585346 21.4369548,56.3536722 Z M11.3179678,55.0262543 C10.9834424,54.6226804 10.1332582,53.481652 10.1332582,52.2992938 C10.1683426,51.3665355 10.4326993,50.4556578 10.9042986,49.6476995 L14.9177881,49.2044165 L27.3164436,51.4848524 C27.7831474,51.5707537 28.26209,51.4224524 28.5974313,51.0893823 L29.8294641,49.8665047 C29.9347172,49.7635852 30.0815821,49.7133411 30.227631,49.7303592 L33.6038903,50.1493306 C33.616945,50.1509514 33.6291837,50.1525721 33.6430543,50.1525721 L38.3655746,50.3567903 C38.5613943,50.3657046 38.7139706,50.5302136 38.7049955,50.7255175 C38.6976523,50.8786811 38.5923991,51.0099642 38.4439025,51.0504836 C36.8610259,51.469455 31.4384499,52.8649456 28.0850363,53.2571741 C27.4021148,53.3365923 26.4197522,53.4711169 25.2831816,53.6267117 C21.7412914,54.112135 15.5917345,54.9533193 11.3179678,55.0262543 Z M19.4967072,43.7140279 L31.5029073,43.7140279 L31.5029073,40.1361585 L19.4967072,40.1361585 L19.4967072,43.7140279 Z M17.8493733,38.3208861 C17.910567,38.1912238 17.9644174,38.0591303 18.017452,37.9262264 L18.3030225,39.7342053 C18.3258681,39.8760235 18.4115393,40.0008234 18.5363744,40.0729481 L18.5363744,43.7618409 L7.53946206,46.795939 C7.66184942,46.7076066 7.78260495,46.6160326 7.89764907,46.517165 L8.48184473,46.0203963 L14.288717,43.0438358 C15.4106012,42.4660282 16.3113722,41.5405634 16.8539561,40.407639 L17.8493733,38.3208861 Z M0.262309587,48.6420062 C0.368378633,48.7125101 0.49729332,48.7384425 0.622128428,48.7141309 L4.52383749,47.9385881 C3.2958843,48.6841464 1.48863094,50.0099436 1.48863094,51.3454654 C1.48863094,52.8276677 2.67252468,53.3965611 4.3116994,54.1866908 C4.9652479,54.5011219 5.70609939,54.8576933 6.52935837,55.3350127 C7.55659629,55.9306489 9.78812583,56.0651736 12.6356718,55.9395632 C11.839338,56.3666385 11.5423447,57.3545032 11.9723323,58.1454433 C12.3190965,58.7824094 13.0485251,59.1162899 13.7616355,58.9631263 L21.4598005,57.3099318 C22.4062627,57.3463993 33.9857389,57.78482 40.627293,57.78482 C47.8440677,57.78482 49.7508628,53.7288208 49.7508628,51.5845303 C49.7508628,50.732811 49.148717,49.8316579 47.9607436,48.9061932 C47.4883284,48.5390867 46.9849084,48.2141206 46.4545632,47.9337258 L50.3774861,48.7133205 C50.4084909,48.7198036 50.4394957,48.7222347 50.4713164,48.7222347 C50.6997728,48.7222347 50.8972244,48.5617776 50.9412838,48.3389205 C51.2529637,46.7489364 50.2958945,45.1856952 48.7325999,44.7270147 L45.7936714,43.8842097 L39.0737894,37.6328655 C38.6870454,37.2722422 38.4667481,36.7681799 38.4659322,36.2414268 L38.4659322,25.7833509 C38.4806187,24.5564212 37.80912,23.421876 36.7231362,22.8383956 C36.1862636,22.5482762 35.5710632,22.4340113 34.9648378,22.5150502 L34.9681014,22.5004632 L28.861788,21.1535959 L28.861788,18.8999028 C30.8330405,17.0327655 32.1531921,13.7547402 32.1531921,10.8738057 C32.1874606,8.6144399 31.2777145,6.44178577 29.6401717,4.87287179 C29.6989176,4.65568741 29.7315542,4.4336407 29.7372656,4.20916282 C29.7372656,1.88496587 27.8402615,0 25.5002152,0 C23.158537,0 21.2615329,1.88496587 21.2615329,4.20916282 C21.2656125,4.43120953 21.3023287,4.65163547 21.3692338,4.8639575 C19.7251636,6.43287149 18.8121539,8.60957756 18.8456064,10.8738057 C18.8456064,13.7547402 20.166574,17.0327655 22.1378264,18.8999028 L22.1378264,21.1535959 L16.0306971,22.5012736 L16.0339608,22.5158606 C15.4285513,22.435632 14.8125349,22.5490866 14.2764783,22.8383956 C13.1904945,23.4234968 12.5189958,24.5572316 12.5336823,25.7833509 L12.5336823,36.2422372 C12.5336823,36.7689903 12.313385,37.2730525 11.9274569,37.6336759 L5.09089893,44.0000954 L2.2849647,44.7602407 C0.715958738,45.1905575 -0.255796907,46.7497468 0.0591465682,48.3372998 C0.0828081246,48.4620997 0.156240541,48.5715023 0.262309587,48.6420062 Z" id="Fill-1" fill="#003B4A"></path>
                    <path d="M2.53708267,45.6808431 L5.45724509,44.889903 C5.53230934,44.8696433 5.60247809,44.8307446 5.65877628,44.7772589 L12.5834532,38.3298004 C13.1635692,37.7876498 13.4931992,37.0323669 13.494831,36.2422372 L13.494831,25.7833509 C13.4801445,24.9105614 13.9541916,24.1009824 14.725232,23.682011 C15.0091706,23.5264162 15.3290096,23.4445669 15.6529282,23.4429461 C15.6871966,23.4429461 15.7214651,23.4429461 15.7557335,23.4461877 L17.8118412,32.0808873 L17.4234653,36.3046371 C17.3728785,36.8621851 17.22275,37.4067668 16.981239,37.9132602 L15.9858218,39.9992027 C15.5338045,40.9433064 14.783162,41.7147971 13.8489385,42.1961685 L7.99229529,45.1986614 C7.95965866,45.2156796 7.92783795,45.2359393 7.8992809,45.2594406 L7.27347353,45.7934873 C6.64440249,46.3283443 5.88723269,46.6938299 5.07621244,46.8559078 L0.958285712,47.6727804 C0.98929051,46.737591 1.62896845,45.9304431 2.53708267,45.6808431 Z M25.5002152,27.0200052 C27.3556076,27.0183844 28.8593403,25.5248366 28.861788,23.682011 L28.861788,22.1293048 L34.284364,23.3270604 L32.2355996,31.9358276 C32.2241768,31.9860717 32.2200972,32.0379367 32.2249927,32.0889912 L32.4852698,34.9269751 L31.8121394,39.1831405 L19.1874751,39.1831405 L18.5151606,34.9277855 L18.7754377,32.0898016 C18.7803332,32.0387471 18.7762536,31.9868821 18.7648308,31.936638 L16.7160664,23.3278708 L22.1378264,22.1293048 L22.1378264,23.682011 C22.1402742,25.5248366 23.6440069,27.0183844 25.5002152,27.0200052 Z M25.5002152,20.4145207 C26.3569267,20.3991233 27.1916085,20.1365572 27.9006393,19.657617 L27.9006393,23.682011 C27.9006393,24.9988939 26.8260783,26.0661768 25.5002152,26.0661768 C24.1743521,26.0661768 23.0989752,24.9988939 23.0989752,23.682011 L23.0989752,19.657617 C23.808006,20.1365572 24.6426878,20.3991233 25.5002152,20.4145207 Z M19.9495404,12.4524443 C20.5622932,9.49209167 22.8827575,7.35185313 25.5002152,7.35185313 C28.1976326,7.35185313 30.4805649,9.37377481 31.0786311,12.2774002 C30.5401267,15.7474879 28.1494936,19.4606923 25.5002152,19.4606923 C22.8949963,19.4606923 20.5394475,15.8698567 19.9495404,12.4508236 L19.9495404,12.4524443 Z M25.5002152,4.15324595 C28.2979903,4.15324595 30.6298775,6.54875718 31.1031086,9.69387865 C29.9037124,7.67438813 27.8378138,6.39802474 25.5002152,6.39802474 C23.1471142,6.39802474 21.057554,7.76434136 19.8655011,9.91592536 C20.2612202,6.6622117 22.636351,4.15324595 25.5002152,4.15324595 Z M25.5002152,0.953828387 C27.3042049,0.956259556 28.7679577,2.4052359 28.7761169,4.19781737 C26.7975212,2.86553711 24.2020933,2.86553711 22.2234976,4.19781737 C22.2316568,2.4052359 23.6954096,0.956259556 25.5002152,0.953828387 Z M36.2743825,23.682011 C37.0454229,24.1009824 37.5194699,24.9105614 37.5047835,25.7833509 L37.5047835,36.2414268 C37.5064153,37.0323669 37.8368612,37.7884602 38.4177932,38.3298004 L45.2208986,44.6581316 C45.2771968,44.7099966 45.3441019,44.7480849 45.4167184,44.7683446 L48.4657955,45.6435652 C49.3771734,45.9109937 50.0135876,46.7294871 50.0421447,47.6735908 L46.4023446,46.9507234 C45.3204403,46.7343494 44.3446051,46.1581625 43.6372062,45.3169783 C43.5931467,45.2643029 43.5392963,45.2229731 43.4781026,45.1921783 L37.2273721,42.1832022 C36.2441936,41.7075036 35.4519395,40.9141324 34.9827879,39.9327507 L34.0191914,37.9132602 C33.7776804,37.4067668 33.6275519,36.8621851 33.5769651,36.3046371 L33.1885892,32.0808873 L35.243881,23.4453773 C35.602068,23.4275487 35.9594391,23.5093981 36.2743825,23.682011 Z M43.8770854,46.9507234 L32.4632401,43.7618409 L32.4632401,40.0729481 C32.5888911,40.0008234 32.6753782,39.8760235 32.6974079,39.7342053 L32.9829784,37.9262264 C33.035197,38.0591303 33.0890475,38.1912238 33.1510571,38.3208861 L34.1146536,40.341187 C34.6784513,41.5186829 35.6289932,42.4708905 36.8088073,43.0414047 L42.9689712,46.0074301 C43.3075762,46.3947962 43.6975839,46.7351598 44.1283874,47.0196065 C44.0435322,46.9969156 43.9619406,46.9717935 43.8770854,46.9507234 Z M48.79053,51.5845303 C48.79053,53.3981819 47.0844501,56.8309916 40.627293,56.8309916 C40.1809871,56.8309916 39.7126514,56.8285605 39.2271816,56.8245085 C39.6718557,56.0522074 39.9256055,55.185901 39.9664012,54.2969038 C39.9664012,53.2855378 39.3528326,52.451647 38.8281988,51.9232731 C39.1716993,51.7903692 39.4425833,51.5205095 39.5755776,51.1793356 C40.0235153,51.0010499 40.8581971,50.7247071 41.4481042,50.7498292 L41.4880841,49.7960008 C40.8239287,49.8073462 40.1671165,49.9345774 39.5478365,50.1720215 C39.3446735,49.7222553 38.904079,49.4248424 38.4088181,49.4037723 L33.704248,49.2003645 L30.3483865,48.7838243 C29.907792,48.7279075 29.4647498,48.8786399 29.1514381,49.1914502 L27.9194054,50.4151383 C27.8084408,50.5261617 27.6477054,50.5755954 27.4926814,50.5464214 L15.0238571,48.2530193 C14.9773499,48.2449154 14.9292109,48.2432946 14.8827037,48.2481569 L8.40025316,48.9637308 L8.50550629,49.9118865 L9.76283244,49.7724995 C9.73917089,49.8259852 9.71550933,49.8794709 9.69184777,49.9378189 C9.36466556,50.6841876 9.18842776,51.4864732 9.17292536,52.2992938 C9.17292536,53.3681975 9.68450453,54.3641661 10.1259149,55.0254439 C8.69643057,54.9930283 7.58270559,54.8406751 7.01319641,54.5108466 C6.1573008,54.0148883 5.40013099,53.650213 4.73026417,53.3284884 C3.10740777,52.547273 2.44977968,52.1963743 2.44977968,51.3454654 C2.44977968,50.4078448 4.50262368,48.9604892 5.98514258,48.2157413 L18.8415269,44.6678563 L32.1572717,44.6678563 L43.6298629,47.8729466 C44.9891785,48.1987232 46.262823,48.8065153 47.3675729,49.6566138 C48.286294,50.3713773 48.79053,51.0561564 48.79053,51.5845303 Z M21.4369548,56.3536722 C21.396159,56.3520515 21.3561792,56.3561034 21.3170152,56.3642073 L13.5592884,58.030368 C13.1929422,58.1089758 12.8314915,57.8780148 12.7531636,57.5141499 C12.6789153,57.1745968 12.8771828,56.8342332 13.2108924,56.7296929 L16.6932207,55.637288 C19.4624387,55.3674283 22.4878543,54.9719582 25.4145441,54.5716258 C26.5462192,54.4168414 27.5228703,54.2823168 28.1968167,54.203709 C31.0827107,53.866587 35.3230248,52.840634 37.7307921,52.2223068 C38.1069293,52.5221509 39.0052525,53.3398339 39.0052525,54.2969038 C39.0052525,55.3196153 38.3957634,56.384467 38.1207998,56.8139734 C31.1536954,56.7296929 21.5454716,56.3585346 21.4369548,56.3536722 Z M11.3179678,55.0262543 C10.9834424,54.6226804 10.1332582,53.481652 10.1332582,52.2992938 C10.1683426,51.3665355 10.4326993,50.4556578 10.9042986,49.6476995 L14.9177881,49.2044165 L27.3164436,51.4848524 C27.7831474,51.5707537 28.26209,51.4224524 28.5974313,51.0893823 L29.8294641,49.8665047 C29.9347172,49.7635852 30.0815821,49.7133411 30.227631,49.7303592 L33.6038903,50.1493306 C33.616945,50.1509514 33.6291837,50.1525721 33.6430543,50.1525721 L38.3655746,50.3567903 C38.5613943,50.3657046 38.7139706,50.5302136 38.7049955,50.7255175 C38.6976523,50.8786811 38.5923991,51.0099642 38.4439025,51.0504836 C36.8610259,51.469455 31.4384499,52.8649456 28.0850363,53.2571741 C27.4021148,53.3365923 26.4197522,53.4711169 25.2831816,53.6267117 C21.7412914,54.112135 15.5917345,54.9533193 11.3179678,55.0262543 Z M19.4967072,43.7140279 L31.5029073,43.7140279 L31.5029073,40.1361585 L19.4967072,40.1361585 L19.4967072,43.7140279 Z M17.8493733,38.3208861 C17.910567,38.1912238 17.9644174,38.0591303 18.017452,37.9262264 L18.3030225,39.7342053 C18.3258681,39.8760235 18.4115393,40.0008234 18.5363744,40.0729481 L18.5363744,43.7618409 L7.53946206,46.795939 C7.66184942,46.7076066 7.78260495,46.6160326 7.89764907,46.517165 L8.48184473,46.0203963 L14.288717,43.0438358 C15.4106012,42.4660282 16.3113722,41.5405634 16.8539561,40.407639 L17.8493733,38.3208861 Z M0.262309587,48.6420062 C0.368378633,48.7125101 0.49729332,48.7384425 0.622128428,48.7141309 L4.52383749,47.9385881 C3.2958843,48.6841464 1.48863094,50.0099436 1.48863094,51.3454654 C1.48863094,52.8276677 2.67252468,53.3965611 4.3116994,54.1866908 C4.9652479,54.5011219 5.70609939,54.8576933 6.52935837,55.3350127 C7.55659629,55.9306489 9.78812583,56.0651736 12.6356718,55.9395632 C11.839338,56.3666385 11.5423447,57.3545032 11.9723323,58.1454433 C12.3190965,58.7824094 13.0485251,59.1162899 13.7616355,58.9631263 L21.4598005,57.3099318 C22.4062627,57.3463993 33.9857389,57.78482 40.627293,57.78482 C47.8440677,57.78482 49.7508628,53.7288208 49.7508628,51.5845303 C49.7508628,50.732811 49.148717,49.8316579 47.9607436,48.9061932 C47.4883284,48.5390867 46.9849084,48.2141206 46.4545632,47.9337258 L50.3774861,48.7133205 C50.4084909,48.7198036 50.4394957,48.7222347 50.4713164,48.7222347 C50.6997728,48.7222347 50.8972244,48.5617776 50.9412838,48.3389205 C51.2529637,46.7489364 50.2958945,45.1856952 48.7325999,44.7270147 L45.7936714,43.8842097 L39.0737894,37.6328655 C38.6870454,37.2722422 38.4667481,36.7681799 38.4659322,36.2414268 L38.4659322,25.7833509 C38.4806187,24.5564212 37.80912,23.421876 36.7231362,22.8383956 C36.1862636,22.5482762 35.5710632,22.4340113 34.9648378,22.5150502 L34.9681014,22.5004632 L28.861788,21.1535959 L28.861788,18.8999028 C30.8330405,17.0327655 32.1531921,13.7547402 32.1531921,10.8738057 C32.1874606,8.6144399 31.2777145,6.44178577 29.6401717,4.87287179 C29.6989176,4.65568741 29.7315542,4.4336407 29.7372656,4.20916282 C29.7372656,1.88496587 27.8402615,0 25.5002152,0 C23.158537,0 21.2615329,1.88496587 21.2615329,4.20916282 C21.2656125,4.43120953 21.3023287,4.65163547 21.3692338,4.8639575 C19.7251636,6.43287149 18.8121539,8.60957756 18.8456064,10.8738057 C18.8456064,13.7547402 20.166574,17.0327655 22.1378264,18.8999028 L22.1378264,21.1535959 L16.0306971,22.5012736 L16.0339608,22.5158606 C15.4285513,22.435632 14.8125349,22.5490866 14.2764783,22.8383956 C13.1904945,23.4234968 12.5189958,24.5572316 12.5336823,25.7833509 L12.5336823,36.2422372 C12.5336823,36.7689903 12.313385,37.2730525 11.9274569,37.6336759 L5.09089893,44.0000954 L2.2849647,44.7602407 C0.715958738,45.1905575 -0.255796907,46.7497468 0.0591465682,48.3372998 C0.0828081246,48.4620997 0.156240541,48.5715023 0.262309587,48.6420062 Z" id="Stroke-3" stroke="#003B4A" stroke-width="0.5"></path>
                </g>
            </g>
        </g>
    </g>
</svg>