<?xml version="1.0" encoding="UTF-8"?>
<svg width="23px" height="23px" viewBox="0 0 23 23" version="1.1" xmlns="http://www.w3.org/2000/svg" xmlns:xlink="http://www.w3.org/1999/xlink">
    <!-- Generator: Sketch 52.6 (67491) - http://www.bohemiancoding.com/sketch -->
    <title>phone</title>
    <desc>Created with Sketch.</desc>
    <g id="Page-1" stroke="none" stroke-width="1" fill="none" fill-rule="evenodd">
        <g id="Monarch_Desktop_wireframe" transform="translate(-269.000000, -4380.000000)" fill="#FFFFFF">
            <g id="Footer" transform="translate(0.000000, 4250.000000)">
                <g id="phone" transform="translate(269.000000, 130.000000)">
                    <path d="M19.1537297,18.1117827 C19.7620346,18.6089559 19.8079606,19.47569 19.2532879,20.0297891 L16.9081405,22.3725112 C15.0110713,24.2676189 8.47918716,21.5920934 4.94435354,18.060915 C1.40919168,14.5294091 -1.26905963,8.00489154 0.628293895,6.10950052 L2.9734413,3.76677837 C3.52743169,3.21336089 4.39635895,3.25930701 4.89343325,3.86623357 L8.00392349,7.66413357 C8.48435795,8.25074262 8.44120205,9.14667926 7.90588764,9.68144007 L6.42426193,11.1615335 C6.12500629,11.4604797 6.05072444,12.0229332 6.27936625,12.4062448 C6.29436585,12.4368821 6.32804806,12.5006639 6.3811287,12.5935869 C6.47160876,12.7519815 6.58293944,12.9315735 6.7158247,13.1283672 C7.09767809,13.693865 7.57436501,14.2807078 8.15141974,14.8571654 C8.72845913,15.4336081 9.31659743,15.9102303 9.88383626,16.2924056 C10.0812537,16.4254148 10.2614823,16.5369091 10.4204933,16.6275737 C10.5137958,16.6807726 10.5778704,16.7145566 10.630808,16.7414453 C10.9925499,16.9517937 11.5544038,16.8787042 11.8508775,16.5825371 L13.3325032,15.1024436 C13.8675703,14.5679299 14.7652259,14.5250166 15.351898,15.0045092 L19.1537297,18.1117827 Z M18.711946,18.6511995 L14.9101139,15.543926 C14.600381,15.2907782 14.1070211,15.3143637 13.825832,15.5952623 L12.3442063,17.0753558 C11.8238727,17.595151 10.9153623,17.713336 10.3019581,17.3556059 C10.2581489,17.3341844 10.1810407,17.2935285 10.0746531,17.2328684 C9.9008469,17.1337682 9.70586324,17.013146 9.4937287,16.8702212 C8.89081964,16.464013 8.2681239,15.9593859 7.6580909,15.3499841 C7.04807326,14.7405973 6.54335457,14.1192446 6.13744055,13.5181153 C5.99460718,13.3065894 5.87411816,13.1122234 5.7751743,12.939012 C5.71460031,12.832971 5.67401638,12.7561203 5.66684082,12.738576 C5.28649021,12.1050325 5.40706714,11.1920394 5.93093309,10.6687149 L7.4125588,9.1886214 C7.69405171,8.90741995 7.71775373,8.41535643 7.46394828,8.10546082 L4.35345804,4.30756047 C4.11713347,4.01900863 3.72819417,3.99844301 3.4667698,4.25959668 L1.12162239,6.60231884 C-0.385728585,8.10811132 2.14887692,14.2826924 5.43768204,17.5680967 C8.72616518,20.8531787 14.9077342,23.3852118 16.414812,21.8796929 L18.7599594,19.5369707 C19.0220658,19.2751354 19.0015469,18.887893 18.711946,18.6511995 Z M23,11.4996853 C23,11.692143 22.8438209,11.8481606 22.6511639,11.8481606 C22.458507,11.8481606 22.3023279,11.692143 22.3023279,11.4996853 C22.3023279,5.53349976 17.4607718,0.696950623 11.4884099,0.696950623 C11.295753,0.696950623 11.1395739,0.540932999 11.1395739,0.348475311 C11.1395739,0.156017624 11.295753,0 11.4884099,0 C17.8460857,0 23,5.14858438 23,11.4996853 Z M18.8139672,11.4996853 C18.8139672,11.692143 18.6577881,11.8481606 18.4651312,11.8481606 C18.2724743,11.8481606 18.1162951,11.692143 18.1162951,11.4996853 C18.1162951,7.84299096 15.1488898,4.87865436 11.4884099,4.87865436 C11.295753,4.87865436 11.1395739,4.72263674 11.1395739,4.53017905 C11.1395739,4.33772136 11.295753,4.18170374 11.4884099,4.18170374 C15.5342036,4.18170374 18.8139672,7.45807558 18.8139672,11.4996853 Z" id="Shape"></path>
                </g>
            </g>
        </g>
    </g>
</svg>