<?xml version="1.0" encoding="UTF-8"?>
<svg width="61px" height="34px" viewBox="0 0 61 34" version="1.1" xmlns="http://www.w3.org/2000/svg" xmlns:xlink="http://www.w3.org/1999/xlink">
    <!-- Generator: Sketch 52.6 (67491) - http://www.bohemiancoding.com/sketch -->
    <title>security &amp; privacy</title>
    <desc>Created with Sketch.</desc>
    <defs>
        <polygon id="path-1" points="0 0.438981276 60.20395 0.438981276 60.20395 34 0 34"></polygon>
    </defs>
    <g id="Page-1" stroke="none" stroke-width="1" fill="none" fill-rule="evenodd">
        <g id="Monarch_Desktop_Aqua-pg" transform="translate(-601.000000, -1742.000000)">
            <g id="Facilities" transform="translate(-1.000000, 1388.000000)">
                <g id="security-&amp;-privacy" transform="translate(602.000000, 354.000000)">
                    <g id="Group-3">
                        <mask id="mask-2" fill="white">
                            <use xlink:href="#path-1"></use>
                        </mask>
                        <g id="Clip-2"></g>
                        <path d="M57.797195,17.2885879 C58.0727117,17.3607091 58.224195,17.6491939 58.154045,17.9170727 L55.7130283,27.0146485 C55.6418617,27.2825273 55.3470283,27.4473758 55.0928617,27.3752545 C54.8183617,27.3031333 54.6658617,27.0146485 54.7370283,26.7467697 L57.178045,17.6491939 C57.2380283,17.4225273 57.4413617,17.2679818 57.6650283,17.2679818 C57.705695,17.2679818 57.7565283,17.2782848 57.797195,17.2885879 Z M52.764695,24.5419212 C52.7545283,24.5831333 52.7352117,24.6243455 52.7138617,24.6655576 C52.6223617,24.8098 52.5715283,24.9849515 52.5715283,25.1498 C52.5715283,25.1910121 52.5623783,25.2425273 52.551195,25.2837394 L51.840545,27.6225273 C51.697195,28.0861636 51.1888617,28.3643455 50.7313617,28.220103 L14.639695,17.0310121 C14.4160283,16.9588909 14.2238783,16.8043455 14.1110283,16.5879818 C13.999195,16.3819212 13.9788617,16.1243455 14.051045,15.8976788 L17.9042117,3.12192121 C18.025195,2.73040606 18.3810283,2.48313333 18.7582117,2.48313333 C18.839545,2.48313333 18.9300283,2.49343636 19.0123783,2.52434545 L55.113195,13.7134364 C55.3368617,13.7855576 55.531045,13.940103 55.6418617,14.1564667 C55.753695,14.3625273 55.775045,14.620103 55.7028617,14.8467697 L55.0013617,17.1855576 C54.991195,17.2267697 54.9718783,17.2679818 54.9505283,17.3091939 C54.8590283,17.4637394 54.8092117,17.6285879 54.7980283,17.8037394 C54.7980283,17.8449515 54.7878617,17.8861636 54.777695,17.9273758 L52.764695,24.5419212 Z M30.4498783,31.0328303 C30.4498783,31.5273758 30.0523617,31.939497 29.5552117,31.939497 L2.927695,31.939497 C2.439695,31.939497 2.03302833,31.5376788 2.03302833,31.0328303 C2.03302833,30.5279818 2.42952833,30.1261636 2.927695,30.1261636 L27.654045,30.1261636 C28.212195,30.1261636 28.6707117,29.6625273 28.6707117,29.0958606 L28.6707117,23.5425273 L30.4498783,24.0885879 L30.4498783,31.0328303 Z M57.4210283,13.1982848 C57.056045,12.5079818 56.424695,11.9825273 55.6937117,11.7558606 L19.5908617,0.566769697 C18.055695,0.092830303 16.4188617,0.978890909 15.951195,2.53464848 L12.0980283,15.3104061 C11.8743617,16.0625273 11.9455283,16.8764667 12.312545,17.5667697 C12.6775283,18.2570727 13.3078617,18.7825273 14.0398617,19.0091939 L26.6465283,22.9140424 L26.6465283,28.0655576 L2.927695,28.0655576 C1.311195,28.0655576 -0.000305,29.3946485 -0.000305,31.0328303 C-0.000305,32.6710121 1.311195,34.000103 2.927695,34.000103 L29.5643617,34.000103 C31.1808617,34.000103 32.4923617,32.6710121 32.4923617,31.0328303 L32.4923617,24.7273758 L50.1315283,30.1982848 C51.4430283,30.6104061 52.8765283,29.9819212 53.5383783,28.8073758 C53.8332117,29.0649515 54.1778617,29.2607091 54.555045,29.3637394 C55.1945283,29.5388909 55.875695,29.4461636 56.4755283,29.1061636 C57.065195,28.7661636 57.5023617,28.199497 57.675195,27.5607091 L60.115195,18.4631333 C60.4822117,17.0928303 59.679045,15.6710121 58.3268783,15.300103 C58.1225283,15.2382848 57.9090283,15.2176788 57.6955283,15.2073758 C57.8378617,14.5273758 57.7463617,13.8164667 57.4210283,13.1982848 Z" id="Fill-1" fill="#003B4A" mask="url(#mask-2)"></path>
                    </g>
                    <path d="M50.2655384,23.2088109 L42.3304864,21.0410129 C42.0735556,20.9675282 41.797098,20.9950849 41.5504444,21.105312 C41.3027631,21.2247246 41.1280501,21.4176218 41.0458323,21.6472615 C40.9636144,21.8860867 40.9944461,22.1340975 41.1188006,22.3453659 C41.2513769,22.56582 41.4671988,22.7219749 41.7241297,22.7954596 L49.6591816,24.9632577 C49.7619539,24.9908144 49.854449,25 49.9674986,25 C50.4186692,25 50.820509,24.7428036 50.954113,24.3478235 C51.0363309,24.1089983 51.0054992,23.8609875 50.8821724,23.649719 C50.7382911,23.4384505 50.5224692,23.2822956 50.2655384,23.2088109" id="Fill-4" fill="#003B4A"></path>
                </g>
            </g>
        </g>
    </g>
</svg>