<?xml version="1.0" encoding="UTF-8"?>
<svg width="67px" height="54px" viewBox="0 0 67 54" version="1.1" xmlns="http://www.w3.org/2000/svg" xmlns:xlink="http://www.w3.org/1999/xlink">
    <!-- Generator: Sketch 52.6 (67491) - http://www.bohemiancoding.com/sketch -->
    <title>Vital sustainability</title>
    <desc>Created with Sketch.</desc>
    <defs>
        <polygon id="path-1" points="0.692065086 0.186455319 41.771234 0.186455319 41.771234 42.999817 0.692065086 42.999817"></polygon>
    </defs>
    <g id="Page-1" stroke="none" stroke-width="1" fill="none" fill-rule="evenodd">
        <g id="Monarch_Desktop_Aqua-pg" transform="translate(-133.000000, -1466.000000)">
            <g id="Facilities" transform="translate(-1.000000, 1388.000000)">
                <g id="Vital-sustainability" transform="translate(134.000000, 78.000000)">
                    <path d="M16.5731222,40.717546 L2.63429721,22.8254589 L8.37019325,22.8254589 C8.79920367,22.8254589 9.16221249,22.4965062 9.21751113,22.05729 C9.24248471,21.8542214 11.9539019,1.75870248 29.4318399,1.75870248 C31.9809288,1.75870248 34.7529961,2.18321687 37.6972027,3.02030045 C33.3633948,5.21270594 24.0321952,11.1834733 24.0562769,21.9479454 C24.0571688,22.4321858 24.4389078,22.8254589 24.9107301,22.8254589 L30.6368151,22.8254589 L16.5731222,40.717546 Z M33.1983908,21.5666175 C33.0565765,21.2606364 32.7568936,21.0649187 32.4277775,21.0649187 L25.7865892,21.0649187 C26.4082529,8.99566212 40.2891035,3.75171485 40.4318097,3.6993397 C40.7760883,3.57437443 41.0035263,3.23715195 40.9999586,2.86225613 C40.996391,2.48644144 40.7609258,2.15473214 40.4166472,2.03711776 C36.4815246,0.685471291 32.7845429,0 29.4318399,0 C12.5193751,0 8.36930134,17.191914 7.65041902,21.0658376 L0.854037756,21.0658376 C0.525813569,21.0658376 0.226130616,21.2606364 0.0843163613,21.5656987 C-0.058389807,21.8716798 -0.0173617836,22.2327927 0.187778333,22.497425 L15.904187,42.6701284 C16.0665153,42.8787102 16.3108996,42.9990811 16.5695545,43 L16.5713384,43 C16.8291014,43 17.0725938,42.879629 17.234922,42.6738039 L33.0913612,22.4992628 C33.2982851,22.2355493 33.340205,21.8725987 33.1983908,21.5666175 Z" id="Fill-1" fill="#003B4A"></path>
                    <g id="Group-5" transform="translate(25.000000, 11.000000)">
                        <mask id="mask-2" fill="white">
                            <use xlink:href="#path-1"></use>
                        </mask>
                        <g id="Clip-4"></g>
                        <path d="M33.3841915,20.2729447 C32.9534681,20.2729447 32.589766,20.6004766 32.5343617,21.0377957 C32.510234,21.2399872 29.7945319,41.2477957 12.2832128,41.2477957 C9.72925532,41.2477957 6.951,40.8260298 4.00117021,39.9925617 C8.34325532,37.8096255 17.6940638,31.8637319 17.6672553,21.147583 C17.6672553,20.665434 17.2838936,20.2729447 16.8120638,20.2729447 L11.0750426,20.2729447 L25.1647021,2.45905106 L39.1319362,20.2729447 L33.3841915,20.2729447 Z M41.5831277,20.6013915 L25.8358085,0.513987234 C25.6731702,0.307221277 25.4292128,0.186455319 25.1691702,0.186455319 C24.9100213,0.186455319 24.6669574,0.307221277 24.5025319,0.511242553 L8.61580851,20.5977319 C8.40848936,20.8603064 8.36648936,21.2216894 8.50857447,21.5272638 C8.65065957,21.8319234 8.95091489,22.024966 9.28155319,22.024966 L15.9354255,22.024966 C15.3134681,34.0439234 1.40521277,39.2643064 1.26134043,39.3155404 C0.917297872,39.4417957 0.688531915,39.7766468 0.692106383,40.1499234 C0.696574468,40.5232 0.931595745,40.8543915 1.27742553,40.9714979 C5.22006383,42.3173064 8.92321277,42.999817 12.2832128,42.999817 C29.2270851,42.999817 33.3841915,25.8821574 34.1053404,22.0240511 L40.9155957,22.0240511 C41.2444468,22.0240511 41.5447021,21.8310085 41.6867872,21.5281787 C41.829766,21.224434 41.7886596,20.8630511 41.5831277,20.6013915 Z" id="Fill-3" fill="#003B4A" mask="url(#mask-2)"></path>
                    </g>
                </g>
            </g>
        </g>
    </g>
</svg>